<?xml version="1.0" encoding="UTF-8" standalone="no"?>
<svg
   version="1.0"
   width="1280.000000pt"
   height="640.000000pt"
   viewBox="0 0 1280.000000 640.000000"
   preserveAspectRatio="xMidYMid meet"
   id="svg64"
   sodipodi:docname="car-frame.svg"
   inkscape:version="1.2.2 (b0a8486, 2022-12-01)"
   xmlns:inkscape="http://www.inkscape.org/namespaces/inkscape"
   xmlns:sodipodi="http://sodipodi.sourceforge.net/DTD/sodipodi-0.dtd"
   xmlns="http://www.w3.org/2000/svg"
   xmlns:svg="http://www.w3.org/2000/svg">
  <defs
     id="defs68" />
  <sodipodi:namedview
     id="namedview66"
     pagecolor="#ffffff"
     bordercolor="#000000"
     borderopacity="0.25"
     inkscape:showpageshadow="2"
     inkscape:pageopacity="0.0"
     inkscape:pagecheckerboard="0"
     inkscape:deskcolor="#d1d1d1"
     inkscape:document-units="pt"
     showgrid="false"
     inkscape:zoom="0.39111844"
     inkscape:cx="526.69468"
     inkscape:cy="392.46424"
     inkscape:window-width="1835"
     inkscape:window-height="719"
     inkscape:window-x="0"
     inkscape:window-y="25"
     inkscape:window-maximized="0"
     inkscape:current-layer="svg64" />
  <metadata
     id="metadata2">
Created by potrace 1.15, written by Peter Selinger 2001-2017
</metadata>
  <path
     d="m 358.66566,104.45911 c -10.6,3 -10.1,2.6 -10.8,11.1 -0.4,4.2 -0.9,8 -1.2,8.5 -0.6,1 -24.6,10.5 -59,23.4 -44.8,16.7 -105.2,41.5 -117.3,48.3 -7.8,4.3 -19.3,9.1 -25,10.4 -2.3,0.5 -9.8,1.4 -16.5,1.9 -6.7,0.6 -16.7,1.9 -22.2,3 -15.399995,3.1 -33.999995,4.9 -56.299995,5.7 l -20.3,0.6 -4.3,6.6 c -5.9,9.1 -6,9.5 -2.6,13 3.7,3.7 3.8,6.5 0.3,15 -2.5,6.2 -2.7,7.8 -3.1,25.6 l -0.4,19 -3.8,3.2 c -9.1000001,7.8 -13.3000001,20.9 -13.4000001,41.8 0,19.4 1.1,39.6 2.6,48.2 1.3,7.1 1.4,7.4 7.2000001,12.2 6.9,5.8 13,12.9 15.8,18.4 6.4,12.6 53.4,21.1 138.399995,25 l 9.2,0.4 -0.6,-11.9 c -0.6,-14.2 0.8,-25.6 4.9,-38.3 11.2,-35.2 39.4,-62.2 75.6,-72.2 9,-2.6 11.2,-2.8 27.8,-2.8 16.5,0 18.8,0.2 27.8,2.7 20.1,5.6 36.1,15.2 50.4,30.2 14,14.5 22.2,29.3 27.4,49.2 2.1,7.9 2.4,10.9 2.3,27.9 -0.1,12.7 -0.6,21.4 -1.6,26.3 l -1.5,7.3 300.60001,-0.7 c 165.3,-0.4 300.7,-0.8 300.9,-0.9 0.1,-0.1 -0.8,-3.7 -2,-8.1 -1.9,-6.7 -2.2,-10.5 -2.2,-25.9 -0.1,-16.6 0.1,-18.7 2.7,-27.9 11.70003,-42.1 46.70003,-73.6 88.50003,-79.7 11.9,-1.7 32.5,-0.7 43.2,2.1 23.9,6.3 45.3,20.5 60.1,39.9 7,9.2 15.4,26.7 18.5,38.6 2.4,8.8 2.7,11.9 2.7,26 0.1,11.6 -0.4,18.1 -1.6,23.4 -1,4.1 -1.6,7.5 -1.5,7.6 0.2,0.1 6.2,-0.2 13.3,-0.6 26.6,-1.6 45.8,-4.5 52.5,-7.9 4.8,-2.4 9.7,-8.1 12.7,-14.6 l 2.4,-5.2 -1.6,-15.7 c -1.5,-15.2 -1.5,-16.3 0.4,-28.4 6.3,-38.8 5,-68 -3.5,-80.2 -13.4,-19.3 -52.6,-33.6 -142.9,-51.9 -73.7,-14.9 -132.20003,-20.9 -203.30003,-21 -22.8,0 -22.6,0 -34.7,-8.5 -18.7,-13.1 -104.5,-60.7 -147.1,-81.5 -38.3,-18.7 -78.8,-28.1 -143.9,-33.2 -20.8,-1.7 -110.6,-1.6 -140,0 -12.1,0.7 -31.40001,1.9 -43.00001,2.7 -30.2,2.2 -28.6,2.2 -34.1,-1 -14,-8.1 -18.7,-9.4 -26.9,-7.1 z m 188.50001,33.3 c 0.6,3.7 3.8,23.8 7.1,44.6 3.2,20.9 6.6,42.2 7.5,47.4 0.9,5.2 1.5,9.6 1.3,9.7 -1.1,0.9 -169.90001,-2.9 -195.10001,-4.4 -20.6,-1.3 -41.7,-3.6 -48.5,-5.4 -9.8,-2.6 -19.8,-11.9 -24.9,-23.1 -3.5,-7.5 -3.6,-17.2 -0.5,-25.5 1.7,-4.5 3,-6.1 6.8,-8.6 8.3,-5.4 13.5,-8 25.3,-12.7 34.1,-13.6 85.8,-23 146.00001,-26.7 26.9,-1.6 27,-1.6 51.1,-1.8 l 22.7,-0.2 z m 63,-4.7 c 26.4,1.8 77.7,11 102.9,18.6 18.6,5.6 44.5,18.8 75.6,38.7 21.1,13.4 27.4,18.1 25,18.5 -7.5,1.2 -13.3,5 -16.2,10.6 -1.9,3.5 -2.1,13.6 -0.4,17.9 l 1.1,2.7 -90.7,-0.2 -90.6,-0.3 -5.9,-16 c -11,-30.2 -29.8,-87.8 -29.8,-91.6 0,-0.6 9.5,-0.2 29,1.1 z"
     id="path4"
     style="fill:#d40000;stroke:none;stroke-width:0.1" />
</svg>
