<?xml version="1.0" encoding="UTF-8" standalone="no"?>
<svg
   version="1.0"
   width="207.7159pt"
   height="208.23575pt"
   viewBox="0 0 207.7159 208.23575"
   preserveAspectRatio="xMidYMid"
   id="svg64"
   sodipodi:docname="car-wheel.svg"
   inkscape:version="1.2.2 (b0a8486, 2022-12-01)"
   xmlns:inkscape="http://www.inkscape.org/namespaces/inkscape"
   xmlns:sodipodi="http://sodipodi.sourceforge.net/DTD/sodipodi-0.dtd"
   xmlns="http://www.w3.org/2000/svg"
   xmlns:svg="http://www.w3.org/2000/svg">
  <defs
     id="defs68" />
  <sodipodi:namedview
     id="namedview66"
     pagecolor="#ffffff"
     bordercolor="#000000"
     borderopacity="0.25"
     inkscape:showpageshadow="2"
     inkscape:pageopacity="0.0"
     inkscape:pagecheckerboard="0"
     inkscape:deskcolor="#d1d1d1"
     inkscape:document-units="pt"
     showgrid="false"
     inkscape:zoom="0.2765625"
     inkscape:cx="126.55367"
     inkscape:cy="144.63277"
     inkscape:window-width="1309"
     inkscape:window-height="456"
     inkscape:window-x="741"
     inkscape:window-y="542"
     inkscape:window-maximized="0"
     inkscape:current-layer="svg64" />
  <metadata
     id="metadata2">
Created by potrace 1.15, written by Peter Selinger 2001-2017
</metadata>
  <path
     d="m 85.606036,1.4230559 c -22.3,4 -41,14.1000001 -56.8,30.6000001 -13.2,13.8 -21.3000001,28.3 -26.2000001,46.7 -2.19999999,8.3 -2.59999999,11.9 -2.59999999,24.700004 -0.1,16.9 0.99999999,23.6 6.49999999,38.2 8.7000001,23 27.1000001,43.6 49.3000001,55.1 8.5,4.4 17.8,7.8 27.1,9.8 10.7,2.3 31.200004,2.3 41.900004,-0.1 39.2,-8.4 69.9,-37.5 80.2,-76.1 2.3,-8.6 2.6,-12 2.7,-25.4 0.1,-15.800004 -0.5,-19.900004 -4.6,-33.000004 -9.8,-31 -35.5,-56.7 -66.8,-66.9000001 -15,-5 -35.4,-6.4 -50.700004,-3.6 z M 120.60604,31.523056 c 24.9,5.6 45.7,24.7 54.3,49.9 2.5,7.2 2.8,9.5 2.8,22.000004 0.1,15.3 -1.5,22.8 -7.4,34.5 -9.4,18.6 -28.3,33.7 -48.5,38.6 -9.6,2.4 -26.800004,2.4 -36.000004,0 -32,-8.4 -54.4,-35.5 -56.2,-68.1 -2,-35.900004 20.9,-67.300004 55.8,-76.500004 9.4,-2.4 25.300004,-2.6 35.200004,-0.4 z"
     id="path6"
     style="fill:#000000;stroke:none;stroke-width:0.1" />
  <path
     d="m 82.306036,44.223056 c -3.6,1.3 -8.5,3.6 -10.9,5.1 l -4.4,2.8 11.6,11.5 c 8.1,8.2 12,11.4 13.1,11 1.4,-0.6 1.6,-2.9 1.6,-16.7 0,-18.6 0.6,-17.8 -11,-13.7 z"
     id="path8"
     style="fill:#000000;stroke:none;stroke-width:0.1" />
  <path
     d="m 114.30604,57.823056 c 0,13.9 0.2,16.2 1.6,16.8 1.1,0.4 5,-2.8 13,-10.8 l 11.5,-11.4 -2.8,-2.2 c -3.4,-2.8 -13.8,-7 -19.3,-7.9 l -4,-0.7 z"
     id="path10"
     style="fill:#000000;stroke:none;stroke-width:0.1" />
  <path
     d="m 50.506036,69.123056 c -2.8,3.6 -9.2,19.1 -9.2,22.5 0,1 3.4,1.3 16.5,1.3 15.1,0 16.5,-0.1 16.5,-1.8 0,-1.5 -20.6,-23.2 -22.1,-23.2 -0.4,0 -1.1,0.6 -1.7,1.2 z"
     id="path12"
     style="fill:#000000;stroke:none;stroke-width:0.1" />
  <path
     d="m 144.50604,78.823056 c -6.2,5.9 -11.2,11.5 -11.2,12.4 0,1.5 1.7,1.7 16.5,1.7 13.1,0 16.5,-0.3 16.5,-1.3 0,-4 -6.9,-20.5 -9.5,-22.7 -0.7,-0.6 -4.8,2.7 -12.3,9.9 z"
     id="path14"
     style="fill:#000000;stroke:none;stroke-width:0.1" />
  <path
     d="m 100.40604,80.723056 c -1.200004,2.2 1.1,6.2 3.4,6.2 0.8,0 2.1,-1 2.9,-2.2 2,-2.8 0.4,-5.8 -2.9,-5.8 -1.3,0 -2.9,0.8 -3.4,1.8 z"
     id="path16"
     style="fill:#000000;stroke:none;stroke-width:0.1" />
  <path
     d="m 97.206036,97.823056 c -3.2,3.300004 -3.7,6.700004 -1.4,11.000004 2.9,5.7 10.400004,6.4 15.100004,1.4 5.3,-5.7 0.9,-15.300004 -7.1,-15.300004 -2.7,0 -4.400004,0.8 -6.600004,2.9 z"
     id="path18"
     style="fill:#000000;stroke:none;stroke-width:0.1" />
  <path
     d="m 79.306036,101.42306 c -2.6,3.2 1.3,8.1 4.8,5.9 2.4,-1.6 2.7,-4.5 0.6,-6.1 -2.3,-1.700004 -3.9,-1.600004 -5.4,0.2 z"
     id="path20"
     style="fill:#000000;stroke:none;stroke-width:0.1" />
  <path
     d="m 122.90604,101.52306 c -2,1.9 -2,3.8 -0.2,5.4 2.3,1.9 6.1,0.8 6.4,-1.8 0.7,-4.4 -3.2,-6.700004 -6.2,-3.6 z"
     id="path22"
     style="fill:#000000;stroke:none;stroke-width:0.1" />
  <path
     d="m 41.306036,116.42306 c 0,2.9 4.1,14 7.2,19.4 l 3.1,5.3 11.7,-11.7 c 7.1,-7.1 11.6,-12.3 11.3,-13.1 -0.4,-1.1 -4,-1.4 -16.9,-1.4 -14.1,0 -16.4,0.2 -16.4,1.5 z"
     id="path24"
     style="fill:#000000;stroke:none;stroke-width:0.1" />
  <path
     d="m 133.30604,116.72306 c 0,0.9 5.1,6.8 11.4,13.1 l 11.4,11.4 3.1,-5.4 c 3,-5.1 7.1,-16.5 7.1,-19.5 0,-1.1 -3.1,-1.4 -16.5,-1.4 -15.1,0 -16.5,0.1 -16.5,1.8 z"
     id="path26"
     style="fill:#000000;stroke:none;stroke-width:0.1" />
  <path
     d="m 100.30604,123.82306 c -0.700004,1.5 -0.500004,2.4 0.8,4.1 3.2,4 8.5,0.4 6.2,-4.1 -1.4,-2.5 -5.6,-2.5 -7,0 z"
     id="path28"
     style="fill:#000000;stroke:none;stroke-width:0.1" />
  <path
     d="m 78.506036,144.22306 c -6.1,6.2 -11.2,11.5 -11.2,11.9 0,1.8 20.8,10.8 24.9,10.8 0.7,0 1.1,-5.4 1.1,-16.4 0,-14 -0.2,-16.5 -1.6,-17 -0.9,-0.3 -1.6,-0.6 -1.7,-0.6 -0.1,0 -5.3,5.1 -11.5,11.3 z"
     id="path30"
     style="fill:#000000;stroke:none;stroke-width:0.1" />
  <path
     d="m 115.60604,133.62306 c -1.5,0.6 -1.9,33.3 -0.4,33.3 4.6,0 25.1,-8.8 25.1,-10.8 0,-0.9 -22.3,-23.2 -23,-23.1 -0.3,0 -1.1,0.3 -1.7,0.6 z"
     id="path32"
     style="fill:#000000;stroke:none;stroke-width:0.1" />
</svg>
