<?xml version="1.0" encoding="UTF-8" standalone="no"?>
<!-- Created with Inkscape (http://www.inkscape.org/) -->

<svg
   width="131.70116mm"
   height="118.27502mm"
   viewBox="0 0 131.70116 118.27502"
   version="1.1"
   id="svg382"
   inkscape:version="1.2.2 (b0a8486, 2022-12-01)"
   sodipodi:docname="trees.svg"
   xmlns:inkscape="http://www.inkscape.org/namespaces/inkscape"
   xmlns:sodipodi="http://sodipodi.sourceforge.net/DTD/sodipodi-0.dtd"
   xmlns="http://www.w3.org/2000/svg"
   xmlns:svg="http://www.w3.org/2000/svg">
  <sodipodi:namedview
     id="namedview384"
     pagecolor="#ffffff"
     bordercolor="#000000"
     borderopacity="0.25"
     inkscape:showpageshadow="2"
     inkscape:pageopacity="0.0"
     inkscape:pagecheckerboard="0"
     inkscape:deskcolor="#d1d1d1"
     inkscape:document-units="mm"
     showgrid="false"
     inkscape:zoom="0.2102413"
     inkscape:cx="218.79621"
     inkscape:cy="266.3606"
     inkscape:window-width="1309"
     inkscape:window-height="456"
     inkscape:window-x="0"
     inkscape:window-y="25"
     inkscape:window-maximized="0"
     inkscape:current-layer="layer1" />
  <defs
     id="defs379" />
  <g
     inkscape:label="Layer 1"
     inkscape:groupmode="layer"
     id="layer1"
     transform="translate(-46.153658,-78.036181)">
    <g
       id="g5975"
       stroke-width="0.3"
       stroke-linecap="round"
       transform="matrix(1.7412494,0,0,1.9183085,-73.72913,-1101.9825)">
      <g
         id="g5949"
         transform="matrix(0.53299,0,0,0.53299,54.085,302.58)">
        <path
           id="path5940"
           fill="#44aa00"
           transform="translate(21.964,147.88)"
           d="m 109.37,488.03 c -2.7688,2.8557 -29.131,1.5929 -33.108,1.5931 -2.8884,1.3e-4 -23.226,1.185 -24.017,-1.5931 -1.0887,-3.8257 13.186,-26.024 15.174,-29.469 1.4441,-2.5014 10.587,-20.707 13.388,-20.003 3.8575,0.96999 15.945,24.431 17.934,27.876 1.4443,2.5013 12.639,19.522 10.629,21.596 z" />
        <path
           id="path5942"
           fill="#44aa00"
           transform="translate(21.964,169.88)"
           d="m 109.37,488.03 c -2.7688,2.8557 -29.131,1.5929 -33.108,1.5931 -2.8884,1.3e-4 -23.226,1.185 -24.017,-1.5931 -1.0887,-3.8257 13.186,-26.024 15.174,-29.469 1.4441,-2.5014 10.587,-20.707 13.388,-20.003 3.8575,0.96999 15.945,24.431 17.934,27.876 1.4443,2.5013 12.639,19.522 10.629,21.596 z" />
        <path
           id="rect5946"
           fill="#225500"
           transform="translate(5.802,124.9)"
           d="m 97.732,546.8 c 3.4976,0 4.0406,2.8158 4.0406,6.3135 l 2.2728,17.678 c 0,3.4976 -2.8158,6.3134 -6.3134,6.3134 -3.4977,0 -6.3135,-2.8158 -6.3135,-6.3134 l 2.2728,-17.678 c 0,-3.4977 0.54296,-6.3135 4.0406,-6.3135 z" />
        <path
           id="path5944"
           fill="#44aa00"
           transform="translate(21.964,187.88)"
           d="m 109.37,488.03 c -2.7688,2.8557 -29.131,1.5929 -33.108,1.5931 -2.8884,1.3e-4 -23.226,1.185 -24.017,-1.5931 -1.0887,-3.8257 13.186,-26.024 15.174,-29.469 1.4441,-2.5014 10.587,-20.707 13.388,-20.003 3.8575,0.96999 15.945,24.431 17.934,27.876 1.4443,2.5013 12.639,19.522 10.629,21.596 z" />
      </g>
      <g
         id="g5955"
         transform="matrix(0.25282,0,0,0.25282,111.22,499.31)">
        <path
           id="path5957"
           fill="#44aa00"
           transform="translate(21.964,147.88)"
           d="m 109.37,488.03 c -2.7688,2.8557 -29.131,1.5929 -33.108,1.5931 -2.8884,1.3e-4 -23.226,1.185 -24.017,-1.5931 -1.0887,-3.8257 13.186,-26.024 15.174,-29.469 1.4441,-2.5014 10.587,-20.707 13.388,-20.003 3.8575,0.96999 15.945,24.431 17.934,27.876 1.4443,2.5013 12.639,19.522 10.629,21.596 z" />
        <path
           id="path5959"
           fill="#44aa00"
           transform="translate(21.964,169.88)"
           d="m 109.37,488.03 c -2.7688,2.8557 -29.131,1.5929 -33.108,1.5931 -2.8884,1.3e-4 -23.226,1.185 -24.017,-1.5931 -1.0887,-3.8257 13.186,-26.024 15.174,-29.469 1.4441,-2.5014 10.587,-20.707 13.388,-20.003 3.8575,0.96999 15.945,24.431 17.934,27.876 1.4443,2.5013 12.639,19.522 10.629,21.596 z" />
        <path
           id="path5961"
           fill="#225500"
           transform="translate(5.802,124.9)"
           d="m 97.732,546.8 c 3.4976,0 4.0406,2.8158 4.0406,6.3135 l 2.2728,17.678 c 0,3.4976 -2.8158,6.3134 -6.3134,6.3134 -3.4977,0 -6.3135,-2.8158 -6.3135,-6.3134 l 2.2728,-17.678 c 0,-3.4977 0.54296,-6.3135 4.0406,-6.3135 z" />
        <path
           id="path5963"
           fill="#44aa00"
           transform="translate(21.964,187.88)"
           d="m 109.37,488.03 c -2.7688,2.8557 -29.131,1.5929 -33.108,1.5931 -2.8884,1.3e-4 -23.226,1.185 -24.017,-1.5931 -1.0887,-3.8257 13.186,-26.024 15.174,-29.469 1.4441,-2.5014 10.587,-20.707 13.388,-20.003 3.8575,0.96999 15.945,24.431 17.934,27.876 1.4443,2.5013 12.639,19.522 10.629,21.596 z" />
      </g>
      <g
         id="g5965"
         transform="matrix(0.34821,0,0,0.34821,43.029,432.32)">
        <path
           id="path5967"
           fill="#44aa00"
           transform="translate(21.964,147.88)"
           d="m 109.37,488.03 c -2.7688,2.8557 -29.131,1.5929 -33.108,1.5931 -2.8884,1.3e-4 -23.226,1.185 -24.017,-1.5931 -1.0887,-3.8257 13.186,-26.024 15.174,-29.469 1.4441,-2.5014 10.587,-20.707 13.388,-20.003 3.8575,0.96999 15.945,24.431 17.934,27.876 1.4443,2.5013 12.639,19.522 10.629,21.596 z" />
        <path
           id="path5969"
           fill="#44aa00"
           transform="translate(21.964,169.88)"
           d="m 109.37,488.03 c -2.7688,2.8557 -29.131,1.5929 -33.108,1.5931 -2.8884,1.3e-4 -23.226,1.185 -24.017,-1.5931 -1.0887,-3.8257 13.186,-26.024 15.174,-29.469 1.4441,-2.5014 10.587,-20.707 13.388,-20.003 3.8575,0.96999 15.945,24.431 17.934,27.876 1.4443,2.5013 12.639,19.522 10.629,21.596 z" />
        <path
           id="path5971"
           fill="#225500"
           transform="translate(5.802,124.9)"
           d="m 97.732,546.8 c 3.4976,0 4.0406,2.8158 4.0406,6.3135 l 2.2728,17.678 c 0,3.4976 -2.8158,6.3134 -6.3134,6.3134 -3.4977,0 -6.3135,-2.8158 -6.3135,-6.3134 l 2.2728,-17.678 c 0,-3.4977 0.54296,-6.3135 4.0406,-6.3135 z" />
        <path
           id="path5973"
           fill="#44aa00"
           transform="translate(21.964,187.88)"
           d="m 109.37,488.03 c -2.7688,2.8557 -29.131,1.5929 -33.108,1.5931 -2.8884,1.3e-4 -23.226,1.185 -24.017,-1.5931 -1.0887,-3.8257 13.186,-26.024 15.174,-29.469 1.4441,-2.5014 10.587,-20.707 13.388,-20.003 3.8575,0.96999 15.945,24.431 17.934,27.876 1.4443,2.5013 12.639,19.522 10.629,21.596 z" />
      </g>
    </g>
  </g>
</svg>
